HIERARCHY
ROOT Pelvis
{
	OFFSET 0.000000 0.000000 0.000000
	CHANNELS 6 Xposition Yposition Zposition Xrotation Yrotation Zrotation
	JOINT LeftUpLeg_virtual
	{
		OFFSET 0.000000 0.000000 0.000000
		CHANNELS 3 Xrotation Yrotation Zrotation
		JOINT LeftUpLeg
		{
			OFFSET 8.479700 -4.795502 -0.379100
			CHANNELS 3 Xrotation Yrotation Zrotation
			JOINT LeftLeg
			{
				OFFSET 0.024144 -32.555107 0.112900
				CHANNELS 3 Xrotation Yrotation Zrotation
				JOINT LeftFoot
				{
					OFFSET -0.024144 -32.638630 -3.012600
					CHANNELS 3 Xrotation Yrotation Zrotation
					JOINT LeftToeBase
					{
						OFFSET 0.970200 -13.225400 11.864200
						CHANNELS 3 Xrotation Yrotation Zrotation
						End Site
						{
							OFFSET 0 0 0
						}
					}
				}
			}
		}
	}
	JOINT RightUpLeg_virtual
	{
		OFFSET 0.000000 0.000000 0.000000
		CHANNELS 3 Xrotation Yrotation Zrotation
		JOINT RightUpLeg
		{
			OFFSET -8.479700 -4.795502 -0.379100
			CHANNELS 3 Xrotation Yrotation Zrotation
			JOINT RightLeg
			{
				OFFSET -0.023144 -32.555092 0.112900
				CHANNELS 3 Xrotation Yrotation Zrotation
				JOINT RightFoot
				{
					OFFSET 0.023144 -32.638641 -3.012700
					CHANNELS 3 Xrotation Yrotation Zrotation
					JOINT RightToeBase
					{
						OFFSET -0.970200 -13.225400 11.864200
						CHANNELS 3 Xrotation Yrotation Zrotation
						End Site
						{
							OFFSET 0 0 0
						}
					}
				}
			}
		}
	}
	JOINT Hips_virtual
	{
		OFFSET 0.000000 0.000000 0.000000
		CHANNELS 3 Xrotation Yrotation Zrotation
		JOINT Hips
		{
			OFFSET -0.000000 -0.000000 -0.000000
			CHANNELS 3 Xrotation Yrotation Zrotation
			JOINT Spine
			{
				OFFSET 0.000000 7.722000 1.166200
				CHANNELS 3 Xrotation Yrotation Zrotation
				JOINT Spine1
				{
					OFFSET 0.000000 12.024101 0.248800
					CHANNELS 3 Xrotation Yrotation Zrotation
					JOINT Spine2
					{
						OFFSET 0.000000 11.502998 -0.491200
						CHANNELS 3 Xrotation Yrotation Zrotation
						JOINT Neck_virtual
						{
							OFFSET 0.000000 0.000000 0.000000
							CHANNELS 3 Xrotation Yrotation Zrotation
							JOINT Neck
							{
								OFFSET 0.000000 18.430702 -3.123100
								CHANNELS 3 Xrotation Yrotation Zrotation
								JOINT Head
								{
									OFFSET 0.000000 9.051102 1.034000
									CHANNELS 3 Xrotation Yrotation Zrotation
									End Site
									{
										OFFSET 0 0 0
									}
								}
							}
						}
						JOINT LeftShoulder_virtual
						{
							OFFSET 0.000000 0.000000 0.000000
							CHANNELS 3 Xrotation Yrotation Zrotation
							JOINT LeftShoulder
							{
								OFFSET 6.197800 13.665199 -4.064700
								CHANNELS 3 Xrotation Yrotation Zrotation
								JOINT LeftArm
								{
									OFFSET 7.778100 -0.187103 -1.709300
									CHANNELS 3 Xrotation Yrotation Zrotation
									JOINT LeftForeArm
									{
										OFFSET 22.049376 0.000000 0.000000
										CHANNELS 3 Xrotation Yrotation Zrotation
										JOINT LeftHand
										{
											OFFSET 23.009392 0.000000 0.000000
											CHANNELS 3 Xrotation Yrotation Zrotation
											End Site
											{
												OFFSET 0 0 0
											}
										}
									}
								}
							}
						}
						JOINT RightShoulder_virtual
						{
							OFFSET 0.000000 0.000000 0.000000
							CHANNELS 3 Xrotation Yrotation Zrotation
							JOINT RightShoulder
							{
								OFFSET -6.197800 13.665199 -4.064700
								CHANNELS 3 Xrotation Yrotation Zrotation
								JOINT RightArm
								{
									OFFSET -7.778100 -0.187103 -1.709300
									CHANNELS 3 Xrotation Yrotation Zrotation
									JOINT RightForeArm
									{
										OFFSET -22.049376 0.000000 0.000000
										CHANNELS 3 Xrotation Yrotation Zrotation
										JOINT RightHand
										{
											OFFSET -23.009392 0.000000 0.000000
											CHANNELS 3 Xrotation Yrotation Zrotation
											End Site
											{
												OFFSET 0 0 0
											}
										}
									}
								}
							}
						}
					}
				}
			}
		}
	}
}
MOTION
Frames: 7
Frame Time: 0.03333333
-0.011732 48.754860 1.122669 0.000000 0.000000 0.000000 0.144538 0.155080 0.943217 -91.314479 -6.421588 11.344239 82.452889 6.244270 0.212929 10.076091 -7.293419 -5.912366 0.000000 0.000000 0.000000 0.144538 0.155080 0.943217 -92.209179 7.731099 -7.456633 82.465136 -5.942744 -1.840435 11.081310 0.323658 6.992985 0.000000 0.000000 0.000000 0.144538 0.155080 0.943217 0.000000 0.000000 0.000000 10.430456 0.029715 -1.557685 -0.199273 0.216427 -0.355483 0.000000 0.000000 0.000000 -0.199596 0.248527 -0.300892 -1.001770 -1.276608 0.469465 0.000000 0.000000 0.000000 -0.199596 0.248527 -0.300892 0.823520 -15.262024 -7.868748 4.746758 -21.216401 -54.862193 -0.000031 -62.197533 -0.000030 0.000000 0.000000 0.000000 -0.199596 0.248527 -0.300892 3.171098 -4.378722 8.782891 -3.950248 37.253399 63.733663 0.000015 55.137908 -0.000014 0.000000 0.000000 0.000000 
-0.012893 48.738678 1.145559 0.000000 0.000000 0.000000 0.220986 0.169143 0.946246 -91.482358 -6.404956 11.270811 82.505926 6.283591 0.237218 10.162755 -7.248723 -5.706441 0.000000 0.000000 0.000000 0.220986 0.169143 0.946246 -92.376526 7.763635 -7.376548 82.619464 -6.000862 -1.882656 11.102206 0.269635 6.880532 0.000000 0.000000 0.000000 0.220986 0.169143 0.946246 0.000000 0.000000 0.000000 10.467099 0.024164 -1.560231 -0.063328 0.215446 -0.380943 0.000000 0.000000 0.000000 -0.135199 0.251406 -0.311500 -0.819939 -1.276514 0.424692 0.000000 0.000000 0.000000 -0.135199 0.251406 -0.311500 1.153614 -14.769744 -6.772559 2.903374 -20.762699 -57.237740 0.000061 -61.769676 0.000063 0.000000 0.000000 0.000000 -0.135199 0.251406 -0.311500 3.187849 -4.727845 8.245239 -4.932279 37.148385 65.022110 0.000054 54.880099 -0.000054 0.000000 0.000000 0.000000 
-0.014388 48.719299 1.168617 0.000000 0.000000 0.000000 0.269508 0.182113 0.950835 -91.669048 -6.414575 11.200755 82.531744 6.319900 0.293867 10.441291 -7.161137 -5.697471 0.000000 0.000000 0.000000 0.269508 0.182113 0.950835 -92.563489 7.794492 -7.264057 82.764414 -6.021767 -1.972685 11.325952 0.171144 6.844271 0.000000 0.000000 0.000000 0.269508 0.182113 0.950835 0.000000 0.000000 0.000000 10.538160 0.016506 -1.563814 0.117320 0.217353 -0.407599 0.000000 0.000000 0.000000 -0.022414 0.256674 -0.330249 -0.608621 -1.274648 0.376579 0.000000 0.000000 0.000000 -0.022414 0.256674 -0.330249 1.483756 -14.226184 -5.573874 1.069126 -20.426966 -59.574187 0.000007 -61.355098 -0.000009 0.000000 0.000000 0.000000 -0.022414 0.256674 -0.330249 3.198768 -5.102191 7.675742 -5.994474 37.040160 66.362371 0.000010 54.665733 0.000005 0.000000 0.000000 0.000000 
-0.016117 48.697586 1.191679 0.000000 0.000000 0.000000 0.302268 0.194622 0.956331 -91.898358 -6.428898 11.110871 82.621021 6.387457 0.374342 10.635364 -7.036411 -5.730443 0.000000 0.000000 0.000000 0.302268 0.194622 0.956331 -92.767991 7.812938 -7.121894 82.902370 -6.024057 -2.097238 11.665768 0.033927 6.817611 0.000000 0.000000 0.000000 0.302268 0.194622 0.956331 0.000000 0.000000 0.000000 10.629227 0.008001 -1.567916 0.315335 0.220705 -0.432224 0.000000 0.000000 0.000000 0.118236 0.263075 -0.353244 -0.378668 -1.271492 0.326494 0.000000 0.000000 0.000000 0.118236 0.263075 -0.353244 1.802068 -13.648139 -4.308314 -0.710282 -20.139153 -61.883433 -0.000018 -60.953674 -0.000015 0.000000 0.000000 0.000000 0.118236 0.263075 -0.353244 3.202631 -5.492631 7.084809 -7.091217 36.919703 67.729303 0.000006 54.479358 -0.000024 0.000000 0.000000 0.000000 
-0.017877 48.673706 1.213718 0.000000 0.000000 0.000000 0.320837 0.206239 0.962166 -92.142209 -6.440908 11.001205 82.716938 6.467567 0.481344 10.848861 -6.875913 -5.795079 0.000000 0.000000 0.000000 0.320837 0.206239 0.962166 -92.977309 7.812322 -6.949507 83.023319 -5.999328 -2.262211 12.082822 -0.156417 6.813042 0.000000 0.000000 0.000000 0.320837 0.206239 0.962166 0.000000 0.000000 0.000000 10.755204 0.000192 -1.572021 0.561807 0.226205 -0.458109 0.000000 0.000000 0.000000 0.311176 0.271968 -0.384474 -0.128489 -1.267130 0.274483 0.000000 0.000000 0.000000 0.311176 0.271968 -0.384474 2.105337 -13.032946 -2.969769 -2.448521 -19.928786 -64.159423 0.000048 -60.572850 0.000043 0.000000 0.000000 0.000000 0.311176 0.271968 -0.384474 3.198647 -5.900647 6.470099 -8.231916 36.790548 69.124212 -0.000065 54.322024 0.000080 0.000000 0.000000 0.000000 
-0.019504 48.648392 1.234442 0.000000 0.000000 0.000000 0.330469 0.216891 0.967677 -92.393717 -6.449191 10.874236 82.816508 6.547392 0.613210 11.063045 -6.682097 -5.892442 0.000000 0.000000 0.000000 0.330469 0.216891 0.967677 -93.181313 7.789686 -6.748630 83.117842 -5.946252 -2.468409 12.537663 -0.405959 6.840333 0.000000 0.000000 0.000000 0.330469 0.216891 0.967677 0.000000 0.000000 0.000000 10.911792 -0.005298 -1.575662 0.851040 0.233871 -0.485168 0.000000 0.000000 0.000000 0.550187 0.283418 -0.422933 0.140694 -1.261880 0.221131 0.000000 0.000000 0.000000 0.550187 0.283418 -0.422933 2.388183 -12.383525 -1.564307 -4.149431 -19.802756 -66.396959 -0.000026 -60.219312 -0.000020 0.000000 0.000000 0.000000 0.550187 0.283418 -0.422933 3.185930 -6.324733 5.832567 -9.414671 36.655631 70.541565 -0.000013 54.188897 0.000010 0.000000 0.000000 0.000000 
-0.020866 48.623344 1.254463 0.000000 0.000000 0.000000 0.338755 0.226588 0.972230 -92.646079 -6.452706 10.736519 82.917049 6.617312 0.763538 11.257526 -6.463467 -6.018957 0.000000 0.000000 0.000000 0.338755 0.226588 0.972230 -93.369396 7.747695 -6.521536 83.177286 -5.875949 -2.711714 12.987081 -0.709022 6.907013 0.000000 0.000000 0.000000 0.338755 0.226588 0.972230 0.000000 0.000000 0.000000 11.068876 -0.009658 -1.578604 1.150176 0.241930 -0.514969 0.000000 0.000000 0.000000 0.790869 0.295513 -0.461894 0.425492 -1.256187 0.167569 0.000000 0.000000 0.000000 0.790869 0.295513 -0.461894 2.644608 -11.707454 -0.109113 -5.808109 -19.746082 -68.588992 -0.000001 -59.897282 0.000009 0.000000 0.000000 0.000000 0.790869 0.295513 -0.461894 3.163797 -6.760641 5.176095 -10.632087 36.518552 71.973132 0.000005 54.067057 0.000001 0.000000 0.000000 0.000000 
